<?xml version="1.0" encoding="utf-8"?>
<svg xmlns="http://www.w3.org/2000/svg" width="450" height="450"><path transform="scale(10)" stroke="#40200e" d="M4 4.5h7m3 0h3m1 0h2m5 0h1m2 0h3m3 0h7m-37 1h1m5 0h1m6 0h2m1 0h2m1 0h1m3 0h1m2 0h1m3 0h1m5 0h1m-37 1h1m1 0h3m1 0h1m1 0h1m1 0h1m1 0h2m1 0h1m1 0h2m5 0h3m3 0h1m1 0h3m1 0h1m-37 1h1m1 0h3m1 0h1m1 0h1m1 0h1m2 0h5m1 0h1m2 0h1m2 0h1m1 0h2m1 0h1m1 0h3m1 0h1m-37 1h1m1 0h3m1 0h1m2 0h3m3 0h1m2 0h3m1 0h1m1 0h3m3 0h1m1 0h3m1 0h1m-37 1h1m5 0h1m2 0h3m1 0h1m5 0h1m1 0h1m3 0h2m3 0h1m5 0h1m-37 1h7m1 0h1m1 0h1m1 0h1m1 0h1m1 0h1m1 0h1m1 0h1m1 0h1m1 0h1m1 0h1m1 0h1m1 0h7m-28 1h2m4 0h6m4 0h1m1 0h2m-26 1h2m1 0h2m2 0h2m1 0h1m1 0h1m2 0h1m2 0h1m4 0h1m1 0h1m4 0h2m-32 1h2m2 0h3m1 0h4m1 0h4m2 0h2m1 0h3m4 0h1m1 0h2m-35 1h1m1 0h2m1 0h1m1 0h2m5 0h2m1 0h1m1 0h2m1 0h1m1 0h1m1 0h1m1 0h6m1 0h1m-34 1h2m2 0h1m1 0h2m1 0h3m1 0h2m3 0h1m1 0h1m2 0h6m2 0h3m-36 1h2m2 0h2m2 0h1m2 0h2m1 0h2m1 0h2m1 0h3m3 0h1m2 0h2m1 0h1m1 0h1m-33 1h2m2 0h1m1 0h2m1 0h2m1 0h1m1 0h1m2 0h1m1 0h2m1 0h5m2 0h1m1 0h1m-35 1h1m2 0h4m1 0h2m1 0h1m2 0h1m2 0h1m8 0h2m3 0h6m-37 1h1m2 0h1m1 0h1m1 0h1m1 0h1m1 0h3m1 0h2m1 0h1m3 0h2m3 0h1m1 0h3m1 0h2m1 0h1m-36 1h3m1 0h5m2 0h1m3 0h4m3 0h3m3 0h3m2 0h1m-35 1h1m1 0h1m4 0h1m1 0h4m1 0h1m6 0h3m3 0h2m5 0h2m-36 1h1m3 0h3m1 0h1m1 0h1m1 0h1m1 0h1m2 0h5m2 0h4m1 0h1m4 0h1m1 0h1m-37 1h1m1 0h2m1 0h1m3 0h1m2 0h1m2 0h2m1 0h1m1 0h1m1 0h2m1 0h1m1 0h5m1 0h1m1 0h1m-36 1h1m2 0h2m1 0h5m1 0h1m4 0h2m1 0h1m1 0h1m3 0h5m1 0h2m-33 1h1m5 0h1m1 0h3m3 0h1m1 0h1m2 0h1m1 0h3m2 0h2m2 0h5m-35 1h6m5 0h2m5 0h4m1 0h1m1 0h2m4 0h1m3 0h1m-37 1h2m1 0h3m1 0h1m3 0h1m2 0h1m2 0h1m1 0h1m1 0h1m2 0h1m1 0h3m1 0h2m1 0h2m1 0h1m-34 1h2m1 0h1m1 0h1m1 0h1m1 0h2m2 0h4m3 0h2m1 0h1m1 0h1m1 0h1m2 0h1m2 0h1m-37 1h3m2 0h1m1 0h4m1 0h1m1 0h1m3 0h2m2 0h1m1 0h1m1 0h3m3 0h3m-35 1h3m1 0h4m5 0h1m3 0h1m2 0h2m2 0h1m1 0h2m2 0h2m2 0h3m-37 1h1m2 0h2m6 0h1m2 0h1m1 0h3m2 0h1m2 0h1m4 0h1m1 0h4m1 0h1m-37 1h1m5 0h3m4 0h3m6 0h2m1 0h1m2 0h7m1 0h1m-29 1h2m1 0h2m1 0h2m1 0h1m1 0h1m5 0h1m2 0h1m3 0h4m-36 1h7m1 0h2m1 0h3m2 0h2m2 0h1m1 0h2m1 0h2m1 0h1m1 0h1m1 0h3m1 0h1m-37 1h1m5 0h1m4 0h1m2 0h1m1 0h1m2 0h1m2 0h1m2 0h1m2 0h1m3 0h2m-34 1h1m1 0h3m1 0h1m1 0h1m1 0h1m1 0h2m3 0h2m1 0h1m1 0h1m1 0h1m1 0h7m3 0h1m-37 1h1m1 0h3m1 0h1m1 0h1m2 0h1m1 0h3m3 0h1m1 0h1m2 0h1m2 0h1m2 0h1m3 0h1m-35 1h1m1 0h3m1 0h1m4 0h1m2 0h2m2 0h4m1 0h1m1 0h1m2 0h1m3 0h1m1 0h3m-37 1h1m5 0h1m3 0h1m1 0h1m2 0h1m1 0h1m2 0h3m4 0h1m1 0h2m1 0h5m-37 1h7m2 0h1m2 0h1m2 0h1m1 0h1m6 0h1m2 0h2m1 0h4m2 0h1"/><g>
  <rect x="169.50" y="169.50" width="111" height="111" rx="17.76" fill="#ffffff"/>
  <rect x="169.50" y="169.50" width="111" height="111" rx="17.76" fill="none" stroke="#40200e" stroke-width="5.55"/>
  <clipPath id="drap"><rect x="185.04" y="193.92" width="79.92" height="62.16" rx="6.22"/></clipPath>
  <g clip-path="url(#drap)">
    <rect x="185.04"          y="193.92" width="26.64" height="62.16" fill="#007A5E"/>
    <rect x="211.68"    y="193.92" width="26.64" height="62.16" fill="#CE1126"/>
    <rect x="238.32"  y="193.92" width="26.64" height="62.16" fill="#FCD116"/>
    <polygon points="225.00,206.35 229.60,218.66 242.74,219.24 232.45,227.42 235.96,240.09 225.00,232.83 214.04,240.09 217.55,227.42 207.26,219.24 220.40,218.66" fill="#FCD116"/>
  </g>
</g>
</svg>
